<?xml version="1.0" encoding="UTF-8"?>
<svg width="71px" height="71px" viewBox="0 0 71 71" version="1.1" xmlns="http://www.w3.org/2000/svg" xmlns:xlink="http://www.w3.org/1999/xlink">
    <!-- Generator: Sketch 56.3 (81716) - https://sketch.com -->
    <title>2037851</title>
    <desc>Created with Sketch.</desc>
    <g id="Page-1" stroke="none" stroke-width="1" fill="none" fill-rule="evenodd">
        <g id="2037851" fill-rule="nonzero">
            <g id="Group" transform="translate(7.000000, 0.000000)" fill="#EDEFF1">
                <polygon id="Path" points="57 23.6363636 57 18.8594545 28.5 -1.77635684e-15 0 18.8594545 0 23.6363636"></polygon>
                <polygon id="Path" points="2.375 23.6363636 14.25 23.6363636 14.25 27.1818182 2.375 27.1818182"></polygon>
                <polygon id="Path" points="2.375 43.7272727 14.25 43.7272727 14.25 47.2727273 2.375 47.2727273"></polygon>
                <polygon id="Path" points="13.65625 47.2727273 2.96875 47.2727273 4.15625 27.1818182 12.46875 27.1818182"></polygon>
                <polygon id="Path" points="0 47.2727273 57 47.2727273 57 52 0 52"></polygon>
            </g>
            <polygon id="Path" fill="#D3D3D3" points="7 51 64 51 64 52 7 52"></polygon>
            <polygon id="Path" fill="#EDEFF1" points="4 52 66 52 66 57 4 57"></polygon>
            <polygon id="Path" fill="#D3D3D3" points="9 23 21 23 21 24 9 24"></polygon>
            <polygon id="Path" fill="#D3D3D3" points="9 47 21 47 21 48 9 48"></polygon>
            <polygon id="Path" fill="#D3D3D3" points="20 28 19.9336892 27 12.0663108 27 12 28"></polygon>
            <polygon id="Path" fill="#EDEFF1" points="29 24 41 24 41 27 29 27"></polygon>
            <polygon id="Path" fill="#EDEFF1" points="29 44 41 44 41 47 29 47"></polygon>
            <polygon id="Path" fill="#EDEFF1" points="40 48 30 48 31.1111111 28 38.8888889 28"></polygon>
            <polygon id="Path" fill="#D3D3D3" points="29 23 41 23 41 24 29 24"></polygon>
            <polygon id="Path" fill="#D3D3D3" points="29 47 41 47 41 48 29 48"></polygon>
            <polygon id="Path" fill="#D3D3D3" points="39 28 38.9336892 27 31.0663108 27 31 28"></polygon>
            <polygon id="Path" fill="#EDEFF1" points="50 24 62 24 62 27 50 27"></polygon>
            <polygon id="Path" fill="#EDEFF1" points="50 44 62 44 62 47 50 47"></polygon>
            <polygon id="Path" fill="#EDEFF1" points="60 48 50 48 51.1111111 28 58.8888889 28"></polygon>
            <polygon id="Path" fill="#D3D3D3" points="50 23 62 23 62 24 50 24"></polygon>
            <polygon id="Path" fill="#D3D3D3" points="50 47 62 47 62 48 50 48"></polygon>
            <polygon id="Path" fill="#D3D3D3" points="59 28 58.9336892 27 51.0663108 27 51 28"></polygon>
            <polygon id="Path" fill="#98CA69" points="12 36 71 36 71 66 12 66"></polygon>
            <circle id="Oval" fill="#75AA40" cx="41.5" cy="51.5" r="9.5"></circle>
            <path d="M61.0062979,38.4347826 C61.8081702,41.1787826 63.9314043,43.3481739 66.6170213,44.1674783 L66.6170213,55.8325217 C63.9314043,56.6518261 61.8081702,58.8212174 61.0062979,61.5652174 L20.9937021,61.5652174 C20.1918298,58.8212174 18.0685957,56.6518261 15.3829787,55.8325217 L15.3829787,44.1674783 C18.0685957,43.3481739 20.1918298,41.1787826 20.9937021,38.4347826 L61.0062979,38.4347826 Z M63.0425532,36 L18.9574468,36 C18.9574468,39.3612174 16.2897021,42.0869565 13,42.0869565 L13,57.9130435 C16.2897021,57.9130435 18.9574468,60.6387826 18.9574468,64 L63.0425532,64 C63.0425532,60.6387826 65.7102979,57.9130435 69,57.9130435 L69,42.0869565 C65.7102979,42.0869565 63.0425532,39.3612174 63.0425532,36 Z" id="Shape" fill="#75AA40"></path>
            <path d="M42.625,49.8333333 L40.375,49.8333333 C39.754,49.8333333 39.25,49.3095 39.25,48.6666667 C39.25,48.0238333 39.754,47.5 40.375,47.5 L42.625,47.5 C43.246,47.5 43.75,48.0238333 43.75,48.6666667 L46,48.6666667 C46,46.737 44.48575,45.1666667 42.625,45.1666667 L42.625,44 L40.375,44 L40.375,45.1666667 C38.51425,45.1666667 37,46.737 37,48.6666667 C37,50.5963333 38.51425,52.1666667 40.375,52.1666667 L42.625,52.1666667 C43.246,52.1666667 43.75,52.6905 43.75,53.3333333 C43.75,53.9761667 43.246,54.5 42.625,54.5 L40.375,54.5 C39.754,54.5 39.25,53.9761667 39.25,53.3333333 L37,53.3333333 C37,55.263 38.51425,56.8333333 40.375,56.8333333 L40.375,58 L42.625,58 L42.625,56.8333333 C44.48575,56.8333333 46,55.263 46,53.3333333 C46,51.4036667 44.48575,49.8333333 42.625,49.8333333 Z" id="Path" fill="#98CA69"></path>
            <polygon id="Path" fill="#98CA69" points="13 67 70 67 70 69 13 69"></polygon>
            <polygon id="Path" fill="#75AA40" points="13 66 70 66 70 67 13 67"></polygon>
            <polygon id="Path" fill="#98CA69" points="14 69 69 69 69 71 14 71"></polygon>
            <polygon id="Path" fill="#75AA40" points="14 69 69 69 69 70 14 70"></polygon>
            <circle id="Oval" fill="#6E83B7" cx="14" cy="57" r="14"></circle>
            <circle id="Oval" fill="#EDEFF1" cx="13.5" cy="57.5" r="10.5"></circle>
            <polygon id="Path" fill="#D3D3D3" points="17.1975781 63 13 59.0017745 13 50 15.5493945 50 15.5493945 57.9964509 19 61.2831792"></polygon>
            <polygon id="Path" fill="#6E83B7" points="13 46 15 46 15 48 13 48"></polygon>
            <polygon id="Path" fill="#6E83B7" points="23 56 25 56 25 58 23 58"></polygon>
            <polygon id="Path" fill="#6E83B7" points="13 67 15 67 15 69 13 69"></polygon>
            <polygon id="Path" fill="#6E83B7" points="2 56 4 56 4 58 2 58"></polygon>
        </g>
    </g>
</svg>