<?xml version="1.0" encoding="UTF-8"?>
<svg width="80px" height="59px" viewBox="0 0 80 59" version="1.1" xmlns="http://www.w3.org/2000/svg" xmlns:xlink="http://www.w3.org/1999/xlink">
    <!-- Generator: Sketch 56.3 (81716) - https://sketch.com -->
    <title>check1</title>
    <desc>Created with Sketch.</desc>
    <g id="Page-1" stroke="none" stroke-width="1" fill="none" fill-rule="evenodd">
        <g id="check1" fill-rule="nonzero">
            <rect id="Rectangle" fill="#EBF0F3" x="0" y="12" width="80" height="47"></rect>
            <rect id="Rectangle" fill="#44C4A1" x="0" y="26" width="80" height="27"></rect>
            <g id="Group" transform="translate(15.000000, 17.000000)" fill="#64798A">
                <rect id="Rectangle" x="6.79742045" y="38.4404918" width="36.1678864" height="1.46459016"></rect>
                <rect id="Rectangle" x="0.00488636364" y="4.46295082" width="27.8118788" height="1.46459016"></rect>
                <rect id="Rectangle" x="0.00488636364" y="0.0706557377" width="19.5617424" height="1.46459016"></rect>
            </g>
            <polygon id="Path" fill="#E56353" points="11.2499593 14 5.75004066 14 3 18.5 5.75004066 23 11.2499593 23 14 18.5"></polygon>
            <g id="Group" transform="translate(52.000000, 17.000000)" fill="#D5D6DB">
                <rect id="Rectangle" x="0.119" y="0.108909091" width="3.41333333" height="5.73436364"></rect>
                <rect id="Rectangle" x="3.9845" y="0.108909091" width="3.41333333" height="5.73436364"></rect>
                <rect id="Rectangle" x="7.85016667" y="0.108909091" width="3.41333333" height="5.73436364"></rect>
                <rect id="Rectangle" x="11.7156667" y="0.108909091" width="3.41333333" height="5.73436364"></rect>
                <rect id="Rectangle" x="15.5813333" y="0.108909091" width="3.41333333" height="5.73436364"></rect>
                <rect id="Rectangle" x="19.4383333" y="0.108909091" width="3.41333333" height="5.73436364"></rect>
            </g>
            <g id="Group" transform="translate(4.000000, 32.000000)" fill="#EBF0F3">
                <rect id="Rectangle" x="0.0928036117" y="0.0328021978" width="44.9141851" height="1.47263736"></rect>
                <rect id="Rectangle" x="0.0928036117" y="6.81395604" width="44.9141851" height="1.47263736"></rect>
                <rect id="Rectangle" x="51.0208578" y="13.5201099" width="20.9700406" height="1.47263736"></rect>
                <rect id="Rectangle" x="51.0208578" y="0.0328021978" width="20.9700406" height="6.93148352"></rect>
            </g>
            <polygon id="Rectangle" fill="#DC8744" transform="translate(54.439882, 28.992171) rotate(-148.601940) translate(-54.439882, -28.992171) " points="39.1917463 28.2527958 69.6852117 28.3132393 69.6880173 29.7315468 39.1945519 29.6711033"></polygon>
            <path d="M64.6602746,20.7500998 C64.4007133,20.0733969 64.5341127,19.307346 64.9537203,18.7166939 L73.0774294,7.58381717 C74.6522328,5.36578097 74.1821275,2.18750242 71.8875268,0.73090131 C69.560193,-0.746635552 66.4795065,0.0959049931 65.2187097,2.53813512 L58.9591375,15.0502991 C58.6267083,15.6941972 58.0080708,16.1635208 57.2889314,16.2414941 C55.1775697,16.4707983 53.192041,17.6435304 52,19.6006114 L64.0970694,27 C65.2891104,25.0425892 65.4220163,22.7366888 64.6602746,20.7500998 Z" id="Path" fill="#64798A"></path>
            <path d="M71.1328793,28.7597967 L46.5418796,14.256212 C45.6890192,13.753234 44.5755852,14.0135527 44.0549275,14.8378691 L41,19.6748149 L68.6798653,36 L71.7347928,31.1630541 C72.2554505,30.3388954 71.9859029,29.2629324 71.1328793,28.7597967 Z" id="Path" fill="#FCD462"></path>
            <ellipse id="Oval" fill="#F6C358" transform="translate(56.586145, 25.468622) rotate(-148.601940) translate(-56.586145, -25.468622) " cx="56.5861453" cy="25.4686223" rx="2.29571235" ry="2.29941158"></ellipse>
            <circle id="Oval" fill="#FFFFFF" cx="56" cy="25" r="2"></circle>
            <path d="M57.985507,25.0376322 C57.9557327,25.2555648 57.8903745,25.4708212 57.784349,25.6708575 C57.3518228,26.4868919 56.4266411,26.7447983 55.7178676,26.2467146 C55.3161324,25.9643891 55.0769214,25.498251 55.018099,25 C54.9267427,25.6711921 55.1843993,26.3703156 55.71932,26.7463036 C56.4279482,27.2443873 57.35313,26.9864809 57.7856561,26.1704465 C57.9730163,25.8170379 58.0303863,25.4181361 57.985507,25.0376322 Z" id="Path" fill="#EBF0F3"></path>
            <path d="M48.2485947,39.7408922 C44.5212616,41.5342121 42.9479838,46.0247618 44.7409851,49.7517763 C46.5339864,53.4787907 51.0246955,55.0520685 54.7520286,53.2589079 C58.4787243,51.4659066 60.0520021,46.9753569 58.2590008,43.2483424 C56.4659995,39.521328 51.9754498,37.9480502 48.2485947,39.7408922 Z M48.4931745,40.2491721 C51.4859715,38.8094174 55.0082399,39.7190632 56.9704554,42.239112 L55.7131397,42.8439492 C54.1036928,40.9907191 51.3956283,40.3540148 49.0795288,41.4682473 C46.7634294,42.5824798 45.5706446,45.0959958 46.0139157,47.5102458 L44.7564406,48.1152423 C44.0125036,45.009158 45.500537,41.6887675 48.4931745,40.2491721 Z M46.5381291,47.2580179 C46.2151563,45.1343956 47.2898736,42.9550059 49.3241087,41.9763679 C51.3580251,40.9978892 53.731326,41.5182786 55.1889263,43.0960178 L46.5381291,47.2580179 Z M56.4620161,45.7422602 C56.784989,47.8658824 55.710431,50.0451128 53.6766739,51.0235915 C51.6424388,52.0022295 49.269138,51.4816808 47.8113784,49.9041009 L56.4620161,45.7422602 Z M54.5076081,52.7507873 C51.5149705,54.190542 47.992224,53.2810555 46.0298492,50.7611661 L47.2871649,50.1563289 C48.8969305,52.0092403 51.6053137,52.6459446 53.9212538,51.5317121 C56.2371939,50.4174796 57.42966,47.9041229 56.9862296,45.4901916 L58.2437046,44.885195 C58.9879603,47.9911201 57.500405,51.3110326 54.5076081,52.7507873 Z" id="Shape" fill="#E56353"></path>
            <g id="Group" transform="translate(46.000000, 43.000000)" fill="#FFFFFF">
                <path d="M0.0632666667,4.87778261 L0.369893333,6.96895652 L0.744293333,6.81084783 L0.67704,6.35919565 L1.33796,6.07995652 L1.69901333,6.40743478 L2.07341333,6.24932609 L0.403693333,4.73397826 L0.0632666667,4.87778261 Z M0.6162,5.94984783 L0.52832,5.34206522 L1.01105333,5.78291304 L0.6162,5.94984783 Z" id="Shape"></path>
                <path d="M1.82433333,4.13395652 L1.26758667,4.36906522 L2.25576,6.17232609 L2.60728,6.02380435 L2.33168,5.52086957 L2.54193333,5.432 C2.77489333,5.33354348 2.9198,5.20845652 2.97682667,5.05734783 C3.03368,4.90623913 3.00126667,4.71952174 2.87906667,4.49658696 C2.75721333,4.27426087 2.61213333,4.13228261 2.44157333,4.07141304 C2.2724,4.01084783 2.06648,4.03169565 1.82433333,4.13395652 Z M2.57244,4.88980435 C2.55996,4.96193478 2.49548,5.0225 2.37796,5.0721087 L2.14066667,5.1723913 L1.80856,4.56628261 L2.00945333,4.48136957 C2.12506667,4.43252174 2.22248,4.41821739 2.30152,4.43936957 C2.38108,4.45945652 2.44816,4.52184783 2.50536,4.62623913 C2.56221333,4.73002174 2.58526667,4.81828261 2.57244,4.88980435 Z" id="Shape"></path>
                <path d="M3.35122667,3.48904348 L2.79448,3.72415217 L3.78265333,5.52741304 L4.13417333,5.3788913 L3.85857333,4.87595652 L4.06917333,4.78708696 C4.30213333,4.68863043 4.44686667,4.56369565 4.50372,4.41258696 C4.56057333,4.26147826 4.52816,4.07476087 4.40596,3.85182609 C4.28410667,3.6295 4.13902667,3.48752174 3.96846667,3.42665217 C3.79929333,3.36578261 3.59372,3.38663043 3.35122667,3.48904348 Z M4.09950667,4.24473913 C4.08685333,4.31686957 4.02237333,4.37758696 3.90485333,4.42719565 L3.66756,4.52747826 L3.33545333,3.92136957 L3.53652,3.83645652 C3.65196,3.78776087 3.74954667,3.77330435 3.82858667,3.79445652 C3.90814667,3.81454348 3.97522667,3.87693478 4.03242667,3.98132609 C4.08945333,4.08495652 4.11233333,4.17321739 4.09950667,4.24473913 Z" id="Shape"></path>
                <path d="M5.92817333,3.13767391 C5.81308,2.92767391 5.6784,2.79741304 5.52101333,2.7468913 C5.36518667,2.69652174 5.16498667,2.723 4.91954667,2.82663043 L4.32154667,3.07923913 L5.30972,4.8825 L5.66124,4.73397826 L5.34577333,4.15845652 L5.59017333,4.05528261 L6.25525333,4.48304348 L6.68806667,4.30013043 L5.93545333,3.82352174 C6.08868,3.65506522 6.0866,3.42665217 5.92817333,3.13767391 Z M5.62189333,3.53073913 C5.603,3.5938913 5.5328,3.6511087 5.41337333,3.70163043 L5.15545333,3.81058696 L4.86269333,3.27630435 L5.12668,3.16476087 C5.24004,3.11682609 5.32844,3.10206522 5.39361333,3.11880435 C5.45861333,3.13569565 5.51772,3.19276087 5.57110667,3.29 C5.62432,3.38723913 5.64044,3.46758696 5.62189333,3.53073913 Z" id="Shape"></path>
                <path d="M6.66016,2.0405 C6.4272,2.13895652 6.28021333,2.3106087 6.21885333,2.55591304 C6.1568,2.80152174 6.19857333,3.0561087 6.34365333,3.3208913 C6.48873333,3.58567391 6.68962667,3.77391304 6.94685333,3.88454348 C7.20338667,3.99547826 7.44796,4.00171739 7.68092,3.90341304 C7.91405333,3.80495652 8.06225333,3.63269565 8.12344,3.38754348 C8.18549333,3.14193478 8.14337333,2.88673913 7.99829333,2.62195652 C7.85321333,2.35717391 7.65266667,2.16954348 7.39544,2.05891304 C7.13908,1.94797826 6.89346667,1.94204348 6.66016,2.0405 Z M7.73014667,3.24206522 C7.70206667,3.39256522 7.62181333,3.49634783 7.49094667,3.55143478 C7.35869333,3.60728261 7.21638667,3.59769565 7.06506667,3.52282609 C6.91253333,3.44856522 6.79328,3.33047826 6.70505333,3.16947826 C6.61717333,3.00908696 6.58614667,2.85295652 6.61492,2.7013913 C6.64213333,2.54982609 6.72256,2.44619565 6.85464,2.39034783 C6.98533333,2.3351087 7.12781333,2.34469565 7.28,2.42047826 C7.43288,2.49534783 7.55230667,2.61404348 7.64036,2.77443478 C7.72858667,2.93558696 7.75926667,3.0911087 7.73014667,3.24206522 Z" id="Shape"></path>
                <polygon id="Path" points="8.98334667 2.52395652 7.95218667 1.54578261 7.57068 1.70678261 9.19308 3.24221739 9.49086667 3.11636957 9.13692 1.04528261 8.75558667 1.20643478"></polygon>
                <polygon id="Path" points="10.26324 1.89121739 10.9697467 1.59280435 10.78168 1.24965217 10.0751733 1.54791304 9.87168 1.17645652 10.6574 0.844565217 10.4610133 0.486043478 9.3236 0.966456522 10.3117733 2.76971739 11.4738 2.27895652 11.2786267 1.92271739 10.46812 2.26495652"></polygon>
                <path d="M12.13264,0.0704565217 C11.8958667,-0.0234347826 11.6374267,-0.0108043478 11.3559333,0.108043478 L10.7991867,0.343152174 L11.78736,2.14641304 L12.3266,1.9186087 C12.62768,1.7913913 12.8069067,1.61547826 12.8634133,1.38980435 C12.92044,1.16458696 12.87208,0.911978261 12.71868,0.631826087 C12.5645867,0.351369565 12.3695867,0.164347826 12.13264,0.0704565217 Z M12.4624933,1.25132609 C12.4266133,1.38052174 12.3285067,1.47928261 12.16748,1.54730435 L11.9437067,1.64180435 L11.3429333,0.545695652 L11.5400133,0.462456522 C11.7183733,0.387130435 11.8774933,0.37876087 12.0165067,0.437652174 C12.1553467,0.496695652 12.2733867,0.614478261 12.3704533,0.791456522 C12.4676933,0.96873913 12.4978533,1.12167391 12.4624933,1.25132609 Z" id="Shape"></path>
            </g>
        </g>
    </g>
</svg>