<?xml version="1.0" encoding="UTF-8"?>
<svg width="56px" height="66px" viewBox="0 0 56 66" version="1.1" xmlns="http://www.w3.org/2000/svg" xmlns:xlink="http://www.w3.org/1999/xlink">
    <!-- Generator: Sketch 56.3 (81716) - https://sketch.com -->
    <title>1614223</title>
    <desc>Created with Sketch.</desc>
    <g id="Page-1" stroke="none" stroke-width="1" fill="none" fill-rule="evenodd">
        <g id="payment" transform="translate(-94.000000, -53.000000)" fill-rule="nonzero">
            <g id="1614223" transform="translate(94.000000, 53.000000)">
                <path d="M7,28 C2.35441137,29.7387365 1,32.6710295 1,32.6710295 L7,36 L7,28 Z" id="Path" fill="#F6BB42"></path>
                <path d="M49,28 C53.6448879,29.7402466 55,32.6710295 55,32.6710295 L49,36 L49,28 Z" id="Path" fill="#F6BB42"></path>
                <polygon id="Path" fill="#F5F7FA" points="49 9 40 9 40 0"></polygon>
                <polygon id="Path" fill="#E6E9ED" points="7 0 52 0 52 47 7 47"></polygon>
                <path d="M48.5033765,39.5948115 L49,40.4470557 L32.6201737,49.9789378 L32.5882664,50 C31.6912562,48.3576702 29.9533314,47.2434341 27.9508837,47.2434341 C25.948436,47.2434341 24.2094818,48.3586977 23.313501,50 L23.1035296,49.8736274 L8,41.0784049 L8.45339405,40.3006485 L8.45339405,5.15623194 C10.2031556,5.15623194 11.615316,3.74661272 11.615316,2 L45.3424838,2 C45.3424838,3.74661272 46.7546442,5.15623194 48.5044058,5.15623194 L48.5044058,39.5948115 L48.5033765,39.5948115 Z" id="Path" fill="#F5F7FA"></path>
                <polygon id="Path" fill="#FFCE54" points="32.8571429 22 22.1428571 22 20 16 23.2142857 17 27.5 12 31.7857143 17 35 16"></polygon>
                <path d="M27.5,10 C27.2241211,10 27,9.71984875 27,9.375 L27,5.625 C27,5.28015141 27.2241211,5 27.5,5 C27.7758789,5 28,5.28015141 28,5.625 L28,9.375 C28,9.71984875 27.7758789,10 27.5,10 Z" id="Path" fill="#FFCE54"></path>
                <path d="M32.5139668,12 C32.3824957,12 32.2510245,11.9498181 32.1501631,11.8499561 C31.9499456,11.6497303 31.9499456,11.3235479 32.1501631,11.123322 L34.1232332,9.15016939 C34.3234507,8.94994354 34.6496195,8.94994354 34.8498369,9.15016939 C35.0500544,9.35039523 35.0500544,9.67607579 34.8498369,9.87680342 L32.8767668,11.8499561 C32.7769089,11.9498181 32.6454379,12 32.5139668,12 L32.5139668,12 Z" id="Path" fill="#FFCE54"></path>
                <path d="M24.4870369,12 C24.3555657,12 24.2240947,11.9498181 24.1232333,11.8499561 L22.1501631,9.87680342 C21.9499456,9.67607579 21.9499456,9.35039523 22.1501631,9.15016939 C22.3503806,8.94994354 22.6765493,8.94994354 22.8767668,9.15016939 L24.849837,11.123322 C25.0500543,11.3235479 25.0500543,11.6497303 24.849837,11.8499561 C24.7499791,11.9498181 24.6185081,12 24.4870369,12 Z" id="Path" fill="#FFCE54"></path>
                <path d="M1,64.9643664 L21.1791631,52.4229849 L23.4792485,51 C23.5945345,51.581027 32.5197267,51 32.5197267,51 L55,64.9643664 C54.4220325,65.5959613 53.5822374,66 52.6599487,66 L3.34005127,66 C2.41673793,66 1.57694285,65.5959613 1,64.9643664 Z" id="Path" fill="#F6BB42"></path>
                <path d="M56,35.0645161 L56,62.9354839 C56,63.7197581 55.6993994,64.453125 55.2019407,65 L33,51.0811492 L33.041497,46.0549395 L51.5319809,35.3225806 L55.5116505,33 C55.8238905,33.6915323 56,34.4143146 56,35.0645161 Z" id="Path" fill="#FFCE54"></path>
                <path d="M0,35.0645161 L0,62.9354839 C0,63.7197581 0.300587381,64.453125 0.798024212,65 L23,51.0811492 L22.9585047,46.0549395 L4.46782245,35.3225806 L0.488328057,33 C0.176101736,33.6915323 0,34.4143146 0,35.0645161 Z" id="Path" fill="#FFCE54"></path>
                <path d="M36.4722222,60 L18.5277778,60 C18.2365723,60 18,59.7758789 18,59.5 C18,59.2241211 18.2365723,59 18.5277778,59 L36.4722222,59 C36.7634277,59 37,59.2241211 37,59.5 C37,59.7758789 36.7634277,60 36.4722222,60 Z" id="Path" fill="#EDAB37"></path>
                <path d="M31.5,63 L23.5,63 C23.2241211,63 23,62.7758789 23,62.5 C23,62.2241211 23.2241211,62 23.5,62 L31.5,62 C31.7758789,62 32,62.2241211 32,62.5 C32,62.7758789 31.7758789,63 31.5,63 Z" id="Path" fill="#EDAB37"></path>
                <path d="M30,48 C30,46.8999024 29.1000976,46 28,46 C26.8999024,46 26,46.8999024 26,48 C26,49.1000976 26.8999024,50 28,50 C28.5498047,50 29.0498047,49.7797851 29.4101562,49.4101562 C29.7788086,49.0498047 30,48.5498047 30,48 Z M32.3999024,45.6201172 C32.7788086,46.3300781 33,47.1401367 33,48 C33,48.9199219 32.75,49.7700195 32.3198242,50.5097656 C31.459961,52 29.8398438,53 28,53 C26.1601562,53 24.540039,52 23.6801758,50.5097656 C23.25,49.7700195 23,48.9199219 23,48 C23,47.1401367 23.2211914,46.3300781 23.6000976,45.6201172 C24.4511719,44.059082 26.1000976,43 28,43 C29.8999024,43 31.5498047,44.0600586 32.3999024,45.6201172 Z" id="Shape" fill="#ED5565"></path>
                <path d="M27.5,45 C28.875122,45 30,46.124878 30,47.5 C30,48.1872559 29.7235108,48.8122559 29.2626953,49.2626953 C28.8122559,49.7247314 28.1872559,50 27.5,50 C26.124878,50 25,48.875122 25,47.5 C25,46.124878 26.124878,45 27.5,45 Z" id="Path" fill="#ED5565"></path>
                <path d="M36.4722222,60 L18.5277778,60 C18.2365723,60 18,59.7758789 18,59.5 C18,59.2241211 18.2365723,59 18.5277778,59 L36.4722222,59 C36.7634277,59 37,59.2241211 37,59.5 C37,59.7758789 36.7634277,60 36.4722222,60 Z" id="Path" fill="#EDAB37"></path>
                <path d="M31.5,63 L23.5,63 C23.2241211,63 23,62.7758789 23,62.5 C23,62.2241211 23.2241211,62 23.5,62 L31.5,62 C31.7758789,62 32,62.2241211 32,62.5 C32,62.7758789 31.7758789,63 31.5,63 Z" id="Path" fill="#EDAB37"></path>
                <path d="M31.4285714,47.4285714 L30.7991071,47.4285714 C30.7254464,47.0641741 30.5792411,46.7243303 30.3794643,46.4229911 L30.8253349,45.983817 C31.0491071,45.7622769 31.0513393,45.4001116 30.8309151,45.1746651 C30.6082589,44.9508929 30.2466517,44.9497769 30.0217634,45.1690849 L29.5691964,45.6160714 C29.2706473,45.4196429 28.9347099,45.2745536 28.5725446,45.2008929 L28.5725446,44.5714286 C28.5725446,44.2561384 28.3164063,44 28.001116,44 C27.6858259,44 27.4296874,44.2561384 27.4296874,44.5714286 L27.4296874,45.2008929 C27.0664063,45.2745536 26.7282366,45.4196429 26.4274554,45.6183036 L25.9815849,45.172433 C25.7589286,44.9497769 25.3967634,44.9497769 25.1735491,45.172433 C24.9508929,45.3956473 24.9508929,45.7578126 25.1735491,45.9804687 L25.6194197,46.4263393 C25.4207589,46.7271206 25.2756697,47.0652901 25.2020089,47.4285714 L24.5714286,47.4285714 C24.2561384,47.4285714 24,47.6847099 24,48 C24,48.3152901 24.2561384,48.5714286 24.5714286,48.5714286 L25.2008929,48.5714286 C25.2745536,48.9335937 25.4196429,49.2695313 25.6160714,49.5680803 L25.1690849,50.0206473 C24.9486607,50.2455357 24.9508929,50.6082589 25.1746651,50.8297991 C25.2868303,50.9391741 25.4319197,50.9944197 25.5770089,50.9944197 C25.7243303,50.9944197 25.8722099,50.936942 25.983817,50.8253349 L26.4229911,50.3794643 C26.7243303,50.5792411 27.0641741,50.7254464 27.4285714,50.7991071 L27.4285714,51.4285714 C27.4285714,51.7438616 27.6847099,52 28,52 C28.3152901,52 28.5714286,51.7438616 28.5714286,51.4285714 L28.5714286,50.8002231 C28.9324777,50.7282366 29.2728794,50.5853794 29.5747769,50.3828126 L30.0195313,50.827567 C30.1316964,50.9391741 30.2779017,50.9944197 30.4241071,50.9944197 C30.5703126,50.9944197 30.7165179,50.938058 30.828683,50.827567 C31.0513393,50.6043527 31.0513393,50.2421874 30.828683,50.0195313 L30.3828126,49.5736607 C30.5864956,49.2695313 30.7293527,48.9313616 30.8013393,48.5714286 L31.4285714,48.5714286 C31.7438616,48.5714286 32,48.3152901 32,48 C32,47.6847099 31.7438616,47.4285714 31.4285714,47.4285714 L31.4285714,47.4285714 Z M28,49.7142857 C27.0546874,49.7142857 26.2857143,48.9453126 26.2857143,48 C26.2857143,47.0546874 27.0546874,46.2857143 28,46.2857143 C28.9453126,46.2857143 29.7142857,47.0546874 29.7142857,48 C29.7142857,48.4592634 29.5362723,48.8867187 29.2020089,49.2137277 C28.8867187,49.5362723 28.4603794,49.7142857 28,49.7142857 L28,49.7142857 Z" id="Shape" fill="#DA4453"></path>
                <g id="Group" transform="translate(17.000000, 27.000000)" fill="#656D78">
                    <path d="M20.8864865,1 L17.2540541,1 C16.9677365,1 16.7351351,0.775878875 16.7351351,0.5 C16.7351351,0.224121125 16.9677365,0 17.2540541,0 L20.8864865,0 C21.172804,0 21.4054054,0.224121125 21.4054054,0.5 C21.4054054,0.775878875 21.172804,1 20.8864865,1 Z" id="Path"></path>
                    <path d="M4.28108108,10 C4.07331088,10 3.87719598,9.87890625 3.7976352,9.68212887 L0.165202768,0.682128875 C0.0603040865,0.423828125 0.193074292,0.133789 0.459628411,0.03515625 C0.727702703,-0.064941375 1.0277027,0.06201175 1.13108108,0.318847625 L4.76351351,9.31884762 C4.86841219,9.5771485 4.73564186,9.8671875 4.46908787,9.96582025 C4.40777021,9.9887695 4.34442564,10 4.28108108,10 L4.28108108,10 Z" id="Path"></path>
                    <path d="M4.28108108,10 C4.21773652,10 4.15439196,9.9887695 4.09206084,9.96582025 C3.82550672,9.866211 3.69273652,9.57617188 3.7976352,9.31884763 L7.43006763,0.318847625 C7.53445946,0.06201175 7.83648649,-0.0668945 8.1015203,0.03515625 C8.36807429,0.134765625 8.50084463,0.42480475 8.39594595,0.682128875 L4.76351351,9.68212888 C4.68496618,9.87890625 4.48885129,10 4.28108108,10 L4.28108108,10 Z" id="Path"></path>
                    <path d="M12.0648649,10 C11.7785473,10 11.5459459,9.77587887 11.5459459,9.5 L11.5459459,0.5 C11.5459459,0.224121125 11.7785473,0 12.0648649,0 C12.3511824,0 12.5837838,0.224121125 12.5837838,0.5 L12.5837838,9.5 C12.5837838,9.77587887 12.3511824,10 12.0648649,10 Z" id="Path"></path>
                    <path d="M17.2540541,10 C16.9677365,10 16.7351351,9.77587887 16.7351351,9.5 L16.7351351,0.5 C16.7351351,0.224121125 16.9677365,0 17.2540541,0 C17.5403716,0 17.772973,0.224121125 17.772973,0.5 L17.772973,9.5 C17.772973,9.77587887 17.5403716,10 17.2540541,10 Z" id="Path"></path>
                    <path d="M20.8864865,6 C20.600169,6 20.3675676,5.77587887 20.3675676,5.5 C20.3675676,5.22412112 20.600169,5 20.8864865,5 C22.03125,5 22.9621622,4.10302737 22.9621622,3 C22.9621622,1.89697262 22.03125,1 20.8864865,1 C20.600169,1 20.3675676,0.775878875 20.3675676,0.5 C20.3675676,0.224121125 20.600169,0 20.8864865,0 C22.6028717,0 24,1.34619137 24,3 C24,4.65380862 22.6028717,6 20.8864865,6 Z" id="Path"></path>
                    <path d="M20.8864865,6 L17.2540541,6 C16.9677365,6 16.7351351,5.77587887 16.7351351,5.5 C16.7351351,5.22412112 16.9677365,5 17.2540541,5 L20.8864865,5 C21.172804,5 21.4054054,5.22412112 21.4054054,5.5 C21.4054054,5.77587887 21.172804,6 20.8864865,6 Z" id="Path"></path>
                </g>
                <polygon id="Path" fill="#F6BB42" points="23 21 23.3434352 22 33.6565648 22 34 21"></polygon>
            </g>
        </g>
    </g>
</svg>