<?xml version="1.0" encoding="utf-8"?>
<!-- Generator: Adobe Illustrator 15.0.0, SVG Export Plug-In . SVG Version: 6.00 Build 0)  -->
<!DOCTYPE svg PUBLIC "-//W3C//DTD SVG 1.1//EN" "http://www.w3.org/Graphics/SVG/1.1/DTD/svg11.dtd">
<svg version="1.1" id="Layer_1" xmlns="http://www.w3.org/2000/svg" xmlns:xlink="http://www.w3.org/1999/xlink" x="0px" y="0px"
	 width="48px" height="48px" viewBox="0 0 48 48" enable-background="new 0 0 48 48" xml:space="preserve">
<g>
	<path fill="#FFFFFF" d="M14.992,27.21c0,0.287,0.143,0.431,0.43,0.431c0.131,0,0.241-0.051,0.334-0.138l10.627-10.627
		c0.089-0.091,0.136-0.203,0.136-0.335c0-0.286-0.143-0.43-0.431-0.43c-0.131,0-0.242,0.045-0.333,0.139L15.129,26.876
		C15.037,26.968,14.992,27.078,14.992,27.21z"/>
	<polygon fill="#FFFFFF" points="11.659,30.128 11.659,32.228 14.167,32.228 14.167,34.736 16.265,34.736 18.048,32.95 
		13.442,28.345 	"/>
	<path fill="#FFFFFF" d="M24,0.658C11.109,0.658,0.658,11.108,0.658,24c0,12.891,10.451,23.342,23.342,23.342
		c12.892,0,23.342-10.451,23.342-23.342C47.342,11.108,36.892,0.658,24,0.658z M17.306,37.245H9.148v-8.156l16.313-16.312
		l8.155,8.155L17.306,37.245z M38.125,16.423l-3.251,3.256l-8.161-8.159l3.258-3.232c0.473-0.496,1.059-0.747,1.764-0.747
		c0.693,0,1.288,0.251,1.785,0.747l4.605,4.586c0.483,0.51,0.725,1.106,0.727,1.784C38.852,15.353,38.608,15.94,38.125,16.423z"/>
	<path fill="#FFFFFF" d="M16.265,34.736h-2.098v-2.509h-2.509v-2.1l1.783-1.783l4.606,4.605L16.265,34.736z M26.088,16.11
		c0.288,0,0.431,0.144,0.431,0.43c0,0.132-0.047,0.244-0.136,0.335L15.756,27.503c-0.093,0.087-0.203,0.138-0.334,0.138
		c-0.287,0-0.43-0.144-0.43-0.431c0-0.132,0.045-0.242,0.137-0.334l10.626-10.627C25.846,16.156,25.957,16.11,26.088,16.11z"/>
</g>
</svg>
