<?xml version="1.0" encoding="UTF-8"?>
<svg width="75px" height="85px" viewBox="0 0 75 85" version="1.1" xmlns="http://www.w3.org/2000/svg" xmlns:xlink="http://www.w3.org/1999/xlink">
    <!-- Generator: Sketch 56.3 (81716) - https://sketch.com -->
    <title>1156419</title>
    <desc>Created with Sketch.</desc>
    <g id="Page-1" stroke="none" stroke-width="1" fill="none" fill-rule="evenodd">
        <g id="1156419" fill-rule="nonzero">
            <path d="M68.6947744,38 C67.9735336,38 67.3889015,37.4071743 67.3889015,36.6750147 L67.3889015,33.4992563 C67.3889015,16.4893632 53.7565455,2.6506278 37.0003237,2.6506278 C20.2434546,2.6506278 6.6110987,16.4893632 6.6110987,33.4992563 L6.6110987,36.6750147 C6.6110987,37.4071743 6.02711376,38 5.30587313,38 C4.58463233,38 4,37.4071743 4,36.6750147 L4,33.4992563 C4,15.027673 18.8042103,0 37.0003237,0 C55.1964372,0 70,15.027673 70,33.4992563 L70,36.6750147 C70,37.4071743 69.4160151,38 68.6947744,38 Z" id="Path" fill="#FFC7A5"></path>
            <path d="M67.7493158,65 L64.342777,65 C63.601154,65 63,64.3850707 63,63.6264537 C63,62.8685176 63.601154,62.2535883 64.342777,62.2535883 L67.7493158,62.2535883 C68.6127672,62.2535883 69.3151121,61.5351493 69.3151121,60.651912 L69.3151121,53.3735463 C69.3151121,52.6149292 69.9162661,52 70.6578889,52 C71.3995119,52 72,52.6149292 72,53.3735463 L72,60.651912 C72,63.0489786 70.0933501,65 67.7493158,65 Z" id="Path" fill="#FFC7A5"></path>
            <polygon id="Path" fill="#CCCCCC" points="28 65 46 65 46 81 28 81"></polygon>
            <path d="M63.6208336,59.1719091 C63.8686758,58.1698877 64,57.1212906 64,56.0429369 L64,33.9557694 C64,26.8005984 58.2262409,21 51.1051213,21 L22.8948787,21 C15.7744027,21 10,26.8005984 10,33.9557694 L10,56.0429369 C10,63.2000486 15.7744027,69 22.8948787,69 L51.1051213,69 C54.359258,69 57.3327214,67.7877417 59.6019265,65.7895206" id="Path" fill="#E6E6E6"></path>
            <path d="M21,62.0941727 L21,70 C15.2754599,68.648966 11,63.3011231 11,56.9064972 L11,49 C16.7245402,50.3496936 21,55.6988765 21,62.0941727 L21,62.0941727 Z" id="Path" fill="#CCCCCC"></path>
            <path d="M64,49 L64,56.9064972 C64,58.0236469 63.8692475,59.1099693 63.6224843,60.1480405 L59.6210743,67.0037337 C58.0424305,68.4505999 56.1196001,69.5007339 54,70 L54,62.0935026 C54,55.6988765 58.275093,50.351034 64,49 L64,49 Z" id="Path" fill="#CCCCCC"></path>
            <path d="M34,40.5003294 C34,45.1944132 30.1942657,49 25.5,49 C20.8050755,49 17,45.1944132 17,40.5003294 C17,35.8055868 20.8050755,32 25.5,32 C30.1942657,32 34,35.8055868 34,40.5003294 L34,40.5003294 Z" id="Path" fill="#FFFFFF"></path>
            <path d="M58,40.5003294 C58,45.1944132 54.1942659,49 49.5,49 C44.8057341,49 41,45.1944132 41,40.5003294 C41,35.8055868 44.8057341,32 49.5,32 C54.1942659,32 58,35.8055868 58,40.5003294 L58,40.5003294 Z" id="Path" fill="#FFFFFF"></path>
            <path d="M25,44 C23.3453192,44 22,42.6540607 22,41 C22,39.3459391 23.3453192,38 25,38 C26.6540609,38 28,39.3459391 28,41 C28,42.6540607 26.6540609,44 25,44 Z" id="Path" fill="#42444C"></path>
            <path d="M49,44 C47.3459393,44 46,42.6540607 46,41 C46,39.3459391 47.3459393,38 49,38 C50.6540607,38 52,39.3459391 52,41 C52,42.6540607 50.6540607,44 49,44 Z" id="Path" fill="#42444C"></path>
            <g id="Group" transform="translate(26.000000, 55.000000)" fill="#FF4A4A">
                <polygon id="Path" points="6.42581001 0.115963855 10.1338465 0.115963855 10.1338465 13.9334526 6.42581001 13.9334526"></polygon>
                <polygon id="Path" points="12.79811 0.115963855 16.5068073 0.115963855 16.5068073 13.9334526 12.79811 13.9334526"></polygon>
                <path d="M19.1710708,0.293204024 L19.1710708,13.9334526 L22.9220472,13.9334526 L22.9220472,5.18608814 C22.9220472,2.84638554 21.3319451,0.877635542 19.1710708,0.293204024 Z" id="Path"></path>
                <path d="M3.7615465,0.293204024 C1.60067215,0.876976699 0.0105698529,2.84638554 0.0105698529,5.18608814 L0.0105698529,13.9334526 L3.7615465,13.9334526 L3.7615465,0.293204024 Z" id="Path"></path>
            </g>
            <path d="M11,39.2170179 L11,51.7829821 C11,53.7152792 9.58122667,55.3440477 7.64445562,55.8412507 C7.24711595,55.9453901 6.82758627,56 6.39488123,56 L4.60511877,56 C2.06228338,56 0,54.1115176 0,51.7829821 L0,39.2170179 C0,36.8884824 2.06228338,35 4.60511877,35 L6.39488123,35 C6.82758627,35 7.24711595,35.0546099 7.64445562,35.1587494 C9.58122667,35.6553173 11,37.2840859 11,39.2170179 L11,39.2170179 Z" id="Path" fill="#E53333"></path>
            <path d="M10,39.1205672 L10,51.8794326 C10,53.8413925 8.73168709,55.4951644 7.00030993,56 C5.26831291,55.4951644 4,53.8413925 4,51.8794326 L4,39.1205672 C4,37.1579626 5.26831291,35.5041908 7.00030993,35 C8.73168709,35.5041908 10,37.1579626 10,39.1205672 L10,39.1205672 Z" id="Path" fill="#FF4A4A"></path>
            <path d="M75,39.2170179 L75,51.7829821 C75,53.7152792 73.5812268,55.3440477 71.6437622,55.8412507 C71.2471159,55.9453901 70.8275863,56 70.3948812,56 L68.6051189,56 C66.0622834,56 64,54.1115176 64,51.7829821 L64,39.2170179 C64,36.8884824 66.0622834,35 68.6051189,35 L70.3948812,35 C70.8275863,35 71.2471159,35.0546099 71.6437622,35.1587494 C73.5812268,35.6553173 75,37.2840859 75,39.2170179 L75,39.2170179 Z" id="Path" fill="#E53333"></path>
            <path d="M75,39.1205672 L75,51.8794326 C75,53.8413925 73.7316872,55.4951644 71.9996901,56 C70.2683129,55.4951644 69,53.8413925 69,51.8794326 L69,39.1205672 C69,37.1579626 70.2683129,35.5041908 71.9996901,35 C73.7316872,35.5041908 75,37.1579626 75,39.1205672 L75,39.1205672 Z" id="Path" fill="#FF4A4A"></path>
            <path d="M62.4285714,59 L63.5714286,59 C65.464855,59 67,60.7908439 67,62.9996458 C67,65.2091561 65.464855,67 63.5714286,67 L62.4285714,67 C60.5345376,67 59,65.2091561 59,62.9996458 C59,60.7908439 60.5345376,59 62.4285714,59 Z" id="Path" fill="#42444C"></path>
            <path d="M63,84.7220051 L63,85 L11,85 L11,84.7220051 C11,79.9061325 14.7228965,76 19.3128572,76 L54.6871428,76 C59.2783927,76 63,79.9061325 63,84.7220051 L63,84.7220051 Z" id="Path" fill="#CCCCCC"></path>
            <path d="M63,84.7220051 L63,85 L21,85 L21,84.7220051 C21,79.9061325 24.6882008,76 29.238238,76 L54.761762,76 C59.3117992,76 63,79.9061325 63,84.7220051 L63,84.7220051 Z" id="Path" fill="#E6E6E6"></path>
        </g>
    </g>
</svg>